<?xml version="1.0" encoding="UTF-8" standalone="no"?>
<svg
   xmlns:dc="http://purl.org/dc/elements/1.1/"
   xmlns:cc="http://creativecommons.org/ns#"
   xmlns:rdf="http://www.w3.org/1999/02/22-rdf-syntax-ns#"
   xmlns:svg="http://www.w3.org/2000/svg"
   xmlns="http://www.w3.org/2000/svg"
   xmlns:sodipodi="http://sodipodi.sourceforge.net/DTD/sodipodi-0.dtd"
   xmlns:inkscape="http://www.inkscape.org/namespaces/inkscape"
   width="681.27142"
   height="883.29816"
   viewBox="0 0 180.25306 233.70598"
   version="1.1"
   id="svg8"
   inkscape:version="1.0.2 (394de47547, 2021-03-26)"
   sodipodi:docname="no-background.svg"
   inkscape:export-filename="/home/iago/Drive/Audiovisual/BRASA Hacks/images/no-background.png"
   inkscape:export-xdpi="96"
   inkscape:export-ydpi="96">
  <defs
     id="defs2">
    <clipPath
       clipPathUnits="userSpaceOnUse"
       id="clipPath23">
      <path
         d="M 0,186.439 H 143.796 V 0 H 0 Z"
         id="path21" />
    </clipPath>
  </defs>
  <sodipodi:namedview
     id="base"
     pagecolor="#666666"
     bordercolor="#000000"
     borderopacity="1"
     inkscape:pageopacity="1"
     inkscape:pageshadow="2"
     inkscape:zoom="0.49497475"
     inkscape:cx="413.76321"
     inkscape:cy="473.54282"
     inkscape:document-units="px"
     inkscape:current-layer="layer1"
     inkscape:document-rotation="0"
     showgrid="false"
     units="px"
     borderlayer="true"
     inkscape:showpageshadow="false"
     inkscape:window-width="1366"
     inkscape:window-height="704"
     inkscape:window-x="0"
     inkscape:window-y="768"
     inkscape:window-maximized="1" />
  <metadata
     id="metadata5">
    <rdf:RDF>
      <cc:Work
         rdf:about="">
        <dc:format>image/svg+xml</dc:format>
        <dc:type
           rdf:resource="http://purl.org/dc/dcmitype/StillImage" />
        <dc:title />
      </cc:Work>
    </rdf:RDF>
  </metadata>
  <g
     inkscape:label="Layer 1"
     inkscape:groupmode="layer"
     id="layer1"
     transform="translate(-42.165136,-15.438684)">
    <g
       id="g25"
       transform="matrix(1.2535289,0,0,-1.2535289,108.19628,168.77978)">
      <path
         d="M 0,0 C 4.82,73.084 21.617,122.026 34.35,121.32 46.856,120.627 61.155,71.71 64.138,2.696"
         style="fill:none;stroke:#000062;stroke-width:2;stroke-linecap:round;stroke-linejoin:round;stroke-miterlimit:10;stroke-dasharray:none;stroke-opacity:1"
         id="path27" />
    </g>
    <g
       id="g29"
       transform="matrix(1.2535289,0,0,-1.2535289,202.82304,237.58248)">
      <path
         d="m 0,0 h -99.33 c -8.357,0 -15.132,6.436 -15.132,14.373 V 82.15 c 0,7.939 6.775,14.374 15.132,14.374 H 0 c 8.357,0 15.132,-6.435 15.132,-18.622 V 10.125 C 15.132,6.436 8.357,0 0,0"
         style="fill:#550047;fill-opacity:1;fill-rule:nonzero;stroke:none"
         id="path31" />
    </g>
    <g
       id="g33"
       transform="matrix(1.2535289,0,0,-1.2535289,202.82304,237.58248)">
      <path
         d="m 0,0 h -99.33 c -8.357,0 -15.132,6.436 -15.132,14.373 V 82.15 c 0,7.939 6.775,14.374 15.132,14.374 H 0 c 8.357,0 15.132,-6.435 15.132,-18.622 V 10.125 C 15.132,6.436 8.357,0 0,0 Z"
         style="fill:none;stroke:#93278f;stroke-width:1;stroke-linecap:butt;stroke-linejoin:miter;stroke-miterlimit:10;stroke-dasharray:none;stroke-opacity:1"
         id="path35" />
    </g>
    <g
       id="g37"
       transform="matrix(1.2535289,0,0,-1.2535289,48.946225,103.07544)"
       style="fill:#ffffff;fill-opacity:1">
      <path
         d="m 0,0 c 0,-6.514 4.011,-11.795 8.959,-11.795 4.949,0 8.96,5.281 8.96,11.795 0,6.514 -4.011,11.795 -8.96,11.795 C 4.011,11.795 0,6.514 0,0 Z"
         style="fill:#ffffff;stroke:#93278f;stroke-width:1;stroke-linecap:butt;stroke-linejoin:miter;stroke-miterlimit:10;stroke-dasharray:none;stroke-opacity:1;fill-opacity:1"
         id="path39" />
    </g>
    <g
       id="g41"
       transform="matrix(1.2535289,0,0,-1.2535289,186.61655,103.07544)">
      <path
         d="m 0,0 c 0,-6.514 4.012,-11.795 8.96,-11.795 4.948,0 8.959,5.281 8.959,11.795 0,6.514 -4.011,11.795 -8.959,11.795 C 4.012,11.795 0,6.514 0,0"
         style="fill:#ffffff;fill-opacity:1;fill-rule:nonzero;stroke:none"
         id="path43" />
    </g>
    <g
       id="g45"
       transform="matrix(1.2535289,0,0,-1.2535289,186.61655,103.07544)">
      <path
         d="m 0,0 c 0,-6.514 4.012,-11.795 8.96,-11.795 4.948,0 8.959,5.281 8.959,11.795 0,6.514 -4.011,11.795 -8.959,11.795 C 4.012,11.795 0,6.514 0,0 Z"
         style="fill:none;stroke:#93278f;stroke-width:1;stroke-linecap:butt;stroke-linejoin:miter;stroke-miterlimit:10;stroke-dasharray:none;stroke-opacity:1"
         id="path47" />
    </g>
    <g
       id="g49"
       transform="matrix(1.2535289,0,0,-1.2535289,62.581987,124.20605)">
      <path
         d="m 0,0 -8.018,-2.7 1.523,-4.521 8.017,2.7 z"
         style="fill:#550047;fill-opacity:1;fill-rule:nonzero;stroke:none"
         id="path51" />
    </g>
    <g
       id="g53"
       transform="matrix(1.2535289,0,0,-1.2535289,62.581987,124.20605)">
      <path
         d="m 0,0 -8.018,-2.7 1.523,-4.521 8.017,2.7 z"
         style="fill:none;stroke:#93278f;stroke-width:1;stroke-linecap:butt;stroke-linejoin:miter;stroke-miterlimit:10;stroke-dasharray:none;stroke-opacity:1"
         id="path55" />
    </g>
    <g
       id="g57"
       transform="matrix(1.2535289,0,0,-1.2535289,164.84626,147.99991)">
      <path
         d="M 0,0 H -57.173 C -71.713,0 -83.5,11.787 -83.5,26.327 V 45.35 c 0,14.54 11.787,26.326 26.327,26.326 H 0 c 14.54,0 26.327,-11.786 26.327,-26.326 V 26.327 C 26.327,11.787 14.54,0 0,0"
         style="fill:#ffffff;fill-opacity:1;fill-rule:nonzero;stroke:none"
         id="path59" />
    </g>
    <g
       id="g61"
       transform="matrix(1.2535289,0,0,-1.2535289,164.84626,147.99991)">
      <path
         d="M 0,0 H -57.173 C -71.713,0 -83.5,11.787 -83.5,26.327 V 45.35 c 0,14.54 11.787,26.326 26.327,26.326 H 0 c 14.54,0 26.327,-11.786 26.327,-26.326 V 26.327 C 26.327,11.787 14.54,0 0,0 Z"
         style="fill:none;stroke:#93278f;stroke-width:1;stroke-linecap:butt;stroke-linejoin:miter;stroke-miterlimit:10;stroke-dasharray:none;stroke-opacity:1"
         id="path63" />
    </g>
    <g
       id="g65"
       transform="matrix(1.2535289,0,0,-1.2535289,155.33097,134.95719)">
      <path
         d="m 0,0 h -40.835 c -10.433,0 -18.889,8.457 -18.889,18.889 v 11.356 c 0,10.431 8.456,18.888 18.889,18.888 H 0 c 10.433,0 18.889,-8.457 18.889,-18.888 V 18.889 C 18.889,8.457 10.433,0 0,0"
         style="fill:#ffb0ff;fill-opacity:1;fill-rule:nonzero;stroke:none"
         id="path67" />
    </g>
    <g
       id="g69"
       transform="matrix(1.2535289,0,0,-1.2535289,155.33097,134.95719)">
      <path
         d="m 0,0 h -40.835 c -10.433,0 -18.889,8.457 -18.889,18.889 v 11.356 c 0,10.431 8.456,18.888 18.889,18.888 H 0 c 10.433,0 18.889,-8.457 18.889,-18.888 V 18.889 C 18.889,8.457 10.433,0 0,0 Z"
         style="fill:none;stroke:#93278f;stroke-width:1;stroke-linecap:butt;stroke-linejoin:miter;stroke-miterlimit:10;stroke-dasharray:none;stroke-opacity:1"
         id="path71" />
    </g>
    <g
       id="g73"
       transform="matrix(1.2535289,0,0,-1.2535289,129.73642,37.138438)">
      <path
         d="M 0,0 -0.577,-16.763"
         style="fill:none;stroke:#93278f;stroke-width:1;stroke-linecap:butt;stroke-linejoin:miter;stroke-miterlimit:10;stroke-dasharray:none;stroke-opacity:1"
         id="path75" />
    </g>
    <g
       id="g77"
       transform="matrix(1.2535289,0,0,-1.2535289,121.94711,37.138438)">
      <path
         d="m 0,0 c 0,-3.432 2.782,-6.214 6.214,-6.214 3.432,0 6.214,2.782 6.214,6.214 0,3.432 -2.782,6.214 -6.214,6.214 C 2.782,6.214 0,3.432 0,0"
         style="fill:#e09fff;fill-opacity:1;fill-rule:nonzero;stroke:none"
         id="path79" />
    </g>
    <g
       id="g81"
       transform="matrix(1.2535289,0,0,-1.2535289,121.94711,37.138438)">
      <path
         d="m 0,0 c 0,-3.432 2.782,-6.214 6.214,-6.214 3.432,0 6.214,2.782 6.214,6.214 0,3.432 -2.782,6.214 -6.214,6.214 C 2.782,6.214 0,3.432 0,0 Z"
         style="fill:none;stroke:#93278f;stroke-width:1;stroke-linecap:butt;stroke-linejoin:miter;stroke-miterlimit:10;stroke-dasharray:none;stroke-opacity:1"
         id="path83" />
    </g>
    <g
       id="g85"
       transform="matrix(1.2535289,0,0,-1.2535289,111.07914,93.543603)">
      <path
         d="m 0,0 c 0,-2.314 -1.876,-4.191 -4.19,-4.191 -2.316,0 -4.192,1.877 -4.192,4.191 0,2.314 1.876,4.191 4.192,4.191 C -1.876,4.191 0,2.314 0,0"
         style="fill:#e087ff;fill-opacity:1;fill-rule:nonzero;stroke:none"
         id="path87" />
    </g>
    <g
       id="g89"
       transform="matrix(1.2535289,0,0,-1.2535289,111.07914,93.543603)">
      <path
         d="m 0,0 c 0,-2.314 -1.876,-4.191 -4.19,-4.191 -2.316,0 -4.192,1.877 -4.192,4.191 0,2.314 1.876,4.191 4.192,4.191 C -1.876,4.191 0,2.314 0,0 Z"
         style="fill:none;stroke:#93278f;stroke-width:1;stroke-linecap:butt;stroke-linejoin:miter;stroke-miterlimit:10;stroke-dasharray:none;stroke-opacity:1"
         id="path91" />
    </g>
    <g
       id="g93"
       transform="matrix(1.2535289,0,0,-1.2535289,158.90177,93.543603)">
      <path
         d="m 0,0 c 0,-2.314 -1.877,-4.191 -4.191,-4.191 -2.315,0 -4.191,1.877 -4.191,4.191 0,2.314 1.876,4.191 4.191,4.191 C -1.877,4.191 0,2.314 0,0"
         style="fill:#e087ff;fill-opacity:1;fill-rule:nonzero;stroke:none"
         id="path95" />
    </g>
    <g
       id="g97"
       transform="matrix(1.2535289,0,0,-1.2535289,158.90177,93.543603)">
      <path
         d="m 0,0 c 0,-2.314 -1.877,-4.191 -4.191,-4.191 -2.315,0 -4.191,1.877 -4.191,4.191 0,2.314 1.876,4.191 4.191,4.191 C -1.877,4.191 0,2.314 0,0 Z"
         style="fill:none;stroke:#93278f;stroke-width:1;stroke-linecap:butt;stroke-linejoin:miter;stroke-miterlimit:10;stroke-dasharray:none;stroke-opacity:1"
         id="path99" />
    </g>
    <g
       id="g101"
       transform="matrix(1.2535289,0,0,-1.2535289,114.8826,112.59562)">
      <path
         d="m 0,0 c 1.994,-4.946 6.481,-8.229 11.471,-8.394 5.232,-0.172 10.092,3.118 12.229,8.293"
         style="fill:none;stroke:#93278f;stroke-width:2;stroke-linecap:round;stroke-linejoin:round;stroke-miterlimit:10;stroke-dasharray:none;stroke-opacity:1"
         id="path103" />
    </g>
    <g
       id="g105"
       transform="matrix(1.2535289,0,0,-1.2535289,220.95271,228.05867)">
      <path
         d="m 0,0 -9.046,-10.837 -2.745,89.16 7.413,6.122 c 0.468,0.2 4.447,-4.283 5.047,-10.215 L 0.663,1.957 C 0.68,1.247 0.444,0.554 0,0"
         style="fill:#ff86ff;fill-opacity:1;fill-rule:nonzero;stroke:none"
         id="path107" />
    </g>
    <g
       id="g109"
       transform="matrix(1.2535289,0,0,-1.2535289,220.95271,228.05867)">
      <path
         d="m 0,0 -9.046,-10.837 -2.745,89.16 7.413,6.122 c 0.468,0.2 4.447,-4.283 5.047,-10.215 L 0.663,1.957 C 0.68,1.247 0.444,0.554 0,0 Z"
         style="fill:none;stroke:#93278f;stroke-width:1;stroke-linecap:butt;stroke-linejoin:miter;stroke-miterlimit:10;stroke-dasharray:none;stroke-opacity:1"
         id="path111" />
    </g>
    <g
       id="g113"
       transform="matrix(1.2535289,0,0,-1.2535289,199.34889,248.51789)">
      <path
         d="m 0,0 h -116.038 c -4.89,0 -8.855,3.965 -8.855,8.855 v 78.814 c 0,4.891 3.965,8.855 8.855,8.855 H 0 c 4.891,0 8.854,-3.964 8.854,-8.855 V 8.855 C 8.854,3.965 4.891,0 0,0"
         style="fill:#ff86ff;fill-opacity:1;fill-rule:nonzero;stroke:none"
         id="path115" />
    </g>
    <g
       id="g117"
       transform="matrix(1.2535289,0,0,-1.2535289,199.34889,248.51789)">
      <path
         d="m 0,0 h -116.038 c -4.89,0 -8.855,3.965 -8.855,8.855 v 78.814 c 0,4.891 3.965,8.855 8.855,8.855 H 0 c 4.891,0 8.854,-3.964 8.854,-8.855 V 8.855 C 8.854,3.965 4.891,0 0,0 Z"
         style="fill:none;stroke:#93278f;stroke-width:1;stroke-linecap:butt;stroke-linejoin:miter;stroke-miterlimit:10;stroke-dasharray:none;stroke-opacity:1"
         id="path119" />
    </g>
    <g
       id="g121"
       transform="matrix(1.2535289,0,0,-1.2535289,86.972651,168.77978)">
      <path
         d="M 0,0 C 4.821,73.084 21.618,122.026 34.35,121.32 46.857,120.627 61.156,71.71 64.138,2.696"
         style="fill:none;stroke:#000062;stroke-width:2;stroke-linecap:round;stroke-linejoin:round;stroke-miterlimit:10;stroke-dasharray:none;stroke-opacity:1"
         id="path123" />
    </g>
    <text
       xml:space="preserve"
       style="font-size:90.1135px;line-height:1.25;font-family:Sriracha;-inkscape-font-specification:Sriracha;fill:#550047;fill-opacity:1;stroke-width:2.25284"
       x="93.993217"
       y="223.70686"
       id="text242"><tspan
         sodipodi:role="line"
         id="tspan240"
         x="93.993217"
         y="223.70686"
         style="font-style:normal;font-variant:normal;font-weight:normal;font-stretch:normal;font-family:'Comic Sans MS';-inkscape-font-specification:'Comic Sans MS';fill:#550047;fill-opacity:1;stroke-width:2.25284">A</tspan></text>
  </g>
</svg>
